<svg width="80" height="40" viewBox="0 0 80 40" fill="none" xmlns="http://www.w3.org/2000/svg">
    <path d="M50.5326 13.7098C50.3445 13.579 50.3204 13.3108 50.4819 13.1493C50.642 12.9892 50.8342 12.7797 51.0544 12.5248C51.2639 12.282 51.4667 11.9884 51.6562 11.6534C51.847 11.3172 52.0112 10.9368 52.1446 10.5232C52.2754 10.1202 52.3421 9.68379 52.3421 9.22341C52.3421 8.2973 52.182 7.42191 51.8671 6.62124C51.5548 5.83125 51.0691 5.13066 50.4219 4.5395C49.7693 3.94434 48.9406 3.47061 47.9571 3.13166C46.963 2.78871 45.782 2.61523 44.4462 2.61523H36.0579C35.8551 2.61523 35.6909 2.77937 35.6909 2.98221V26.5538C35.6909 26.7567 35.8551 26.9208 36.0579 26.9208H45.3403C46.7441 26.9208 47.9838 26.73 49.0247 26.3523C50.0562 25.9787 50.9209 25.4583 51.5948 24.8071C52.2674 24.1572 52.7732 23.3899 53.0974 22.5265C53.4257 21.6538 53.5925 20.705 53.5925 19.7041C53.5925 18.3697 53.2842 17.1687 52.6771 16.1332C52.0632 15.0883 51.3413 14.2729 50.53 13.7098H50.5326ZM39.6089 6.54117C39.6089 6.33834 39.773 6.1742 39.9758 6.1742H44.3034C45.1481 6.1742 45.8674 6.28096 46.4399 6.49313H46.4439C46.8309 6.64259 47.1551 6.83875 47.4047 7.07895C48.0465 7.69547 48.3722 8.44276 48.3722 9.30347C48.3722 10.0481 48.2387 10.682 47.9745 11.1837C47.7209 11.6654 47.4594 12.0431 47.1965 12.306L47.0884 12.4141H39.9732C39.7703 12.4141 39.6062 12.2499 39.6062 12.0471V6.54384L39.6089 6.54117ZM48.5309 22.2089C47.809 22.9175 46.6374 23.2764 45.0494 23.2764H39.9745C39.7717 23.2764 39.6075 23.1123 39.6075 22.9095V16.3774C39.6075 16.1745 39.7717 16.0104 39.9745 16.0104H45.5898C46.9496 16.0104 47.9838 16.3787 48.6604 17.106C49.2983 17.8212 49.6185 18.6686 49.6185 19.6321C49.6185 20.5955 49.2516 21.499 48.5296 22.2089H48.5309Z" fill="#0857C3"/>
    <path d="M67.0751 17.3101C68.0306 17.0593 68.8779 16.6856 69.5905 16.1999C70.3045 15.7115 70.9063 15.139 71.38 14.4971C71.8524 13.8566 72.2061 13.1373 72.4316 12.3594C72.6598 11.572 72.7745 10.7567 72.7745 9.93867C72.7745 8.87111 72.597 7.87562 72.2447 6.97887C71.8965 6.09413 71.368 5.32149 70.6741 4.68229C69.9762 4.04042 69.0861 3.53066 68.0306 3.16769C66.963 2.80072 65.71 2.61523 64.3048 2.61523H55.1839C54.981 2.61523 54.8169 2.77937 54.8169 2.98221V26.5538C54.8169 26.7567 54.981 26.9208 55.1839 26.9208H58.4573C58.6601 26.9208 58.8242 26.7567 58.8242 26.5538V17.988C58.8242 17.7852 58.9884 17.6211 59.1912 17.6211H61.8347C61.9548 17.6211 62.0656 17.6798 62.135 17.7772L68.4536 26.766C68.5216 26.8634 68.6337 26.9222 68.7538 26.9222H72.517C72.8146 26.9222 72.988 26.5872 72.8172 26.3443L66.8696 17.8786C66.7228 17.6691 66.8296 17.3782 67.0764 17.3128L67.0751 17.3101ZM64.2114 14.0141H59.1912C58.9884 14.0141 58.8242 13.8499 58.8242 13.6471V6.53984C58.8242 6.337 58.9884 6.17287 59.1912 6.17287H64.3422C64.6424 6.17287 64.9347 6.19155 65.2349 6.22891C66.1597 6.36769 66.9203 6.70397 67.5021 7.22841C68.3041 7.95168 68.7098 8.85243 68.7098 9.90531C68.7098 10.4177 68.6257 10.9248 68.4576 11.4132C68.2854 11.915 68.0119 12.362 67.6436 12.7423C67.2779 13.1213 66.8042 13.4309 66.2371 13.6644C65.6726 13.8953 64.9907 14.0127 64.2101 14.0127L64.2114 14.0141Z" fill="#0857C3"/>
    <path d="M78.7349 2.61523H75.3694C75.1666 2.61523 75.0024 2.77937 75.0024 2.98221V26.5538C75.0024 26.7567 75.1666 26.9208 75.3694 26.9208H78.7349C78.9377 26.9208 79.1019 26.7567 79.1019 26.5538V2.98221C79.1019 2.77937 78.9377 2.61523 78.7349 2.61523Z" fill="#0857C3"/>
    <path d="M25.2731 0H4.36097C1.95229 0 0 1.95229 0 4.36097V25.2731C0 27.6817 1.95229 29.634 4.36097 29.634H25.2731C27.6817 29.634 29.634 27.6817 29.634 25.2731V4.36097C29.634 1.95229 27.6817 0 25.2731 0ZM26.2339 4.36097V23.0312L18.4954 14.763L21.2937 11.6871L21.3525 11.623C23.5249 9.16764 23.8559 5.93428 22.356 3.40017H25.2717C25.8015 3.40017 26.2325 3.83119 26.2325 4.36097H26.2339ZM12.1781 17.9817L9.29708 14.8163L12.1461 11.6844L12.2048 11.6203C14.3773 9.16497 14.7083 5.93161 13.2083 3.3975H16.343V3.41351C17.225 3.38816 18.0671 3.69508 18.7223 4.27556C18.7743 4.32227 18.8277 4.37164 18.8771 4.42102C20.2115 5.75546 20.1928 7.76647 18.8397 9.32911L14.4254 14.2839C14.1291 14.6162 14.1358 15.1193 14.4387 15.4449L24.5218 26.2325H13.207C14.7269 23.6624 14.3867 20.361 12.1768 17.9803L12.1781 17.9817ZM3.40017 25.2731V4.36097C3.40017 3.82986 3.82986 3.40017 4.36097 3.40017H7.19666V3.41618C8.0774 3.39083 8.92077 3.69775 9.57598 4.27823C9.62802 4.32494 9.6814 4.37431 9.73077 4.42369C11.0652 5.75813 11.0465 7.76914 9.69341 9.33044L5.22836 14.2372C4.92944 14.5655 4.92944 15.0686 5.22836 15.3968L9.66138 20.2689L9.70675 20.3169C11.0706 21.8048 11.0826 23.8599 9.73077 25.2117C9.6814 25.261 9.62936 25.3104 9.57598 25.3571C8.92077 25.9376 8.0774 26.2445 7.19666 26.2192V26.2352H4.36097C3.82986 26.2352 3.40017 25.8055 3.40017 25.2744V25.2731Z" fill="#0857C3"/>
    <path d="M0 38.4632V33H1.90959C2.28991 33 2.6035 33.0654 2.85171 33.1962C3.09858 33.3269 3.28274 33.5018 3.40417 33.7219C3.5256 33.9421 3.58565 34.185 3.58565 34.4519C3.58565 34.6867 3.54429 34.8802 3.46155 35.0337C3.37882 35.1872 3.27073 35.3073 3.13595 35.3967C3.00117 35.4861 2.85571 35.5515 2.69958 35.5942V35.6475C2.86639 35.6582 3.03453 35.7169 3.204 35.8237C3.37348 35.9304 3.51493 36.0839 3.62836 36.2827C3.74178 36.4816 3.79917 36.7258 3.79917 37.014C3.79917 37.3023 3.73645 37.5344 3.61234 37.7533C3.48824 37.9721 3.29074 38.1456 3.02252 38.2737C2.75429 38.4018 2.40467 38.4659 1.97364 38.4659H0V38.4632ZM0.661885 35.4007H1.88824C2.08707 35.4007 2.26722 35.362 2.42869 35.2832C2.58882 35.2045 2.71826 35.0951 2.81301 34.9523C2.90776 34.8095 2.9558 34.6427 2.9558 34.4505C2.9558 34.2103 2.87173 34.0062 2.70492 33.838C2.53811 33.6699 2.27256 33.5858 1.90959 33.5858H0.661885V35.3993V35.4007ZM0.661885 37.8761H1.97364C2.406 37.8761 2.71293 37.792 2.89575 37.6239C3.07723 37.4557 3.16931 37.2515 3.16931 37.0113C3.16931 36.8259 3.1226 36.655 3.02786 36.4976C2.93311 36.3401 2.79967 36.2133 2.62485 36.1186C2.45004 36.0239 2.24454 35.9758 2.00567 35.9758H0.661885V37.8747V37.8761Z" fill="#0857C3"/>
    <path d="M6.0069 38.5604C5.74668 38.5604 5.51182 38.511 5.29964 38.4123C5.08746 38.3135 4.91932 38.1707 4.79522 37.9826C4.67112 37.7958 4.6084 37.5676 4.6084 37.3007C4.6084 37.0658 4.6551 36.875 4.74718 36.7282C4.83926 36.5814 4.96336 36.4667 5.11816 36.3826C5.27295 36.2985 5.44376 36.2358 5.63192 36.1944C5.81874 36.1531 6.00823 36.1197 6.19906 36.0943C6.4486 36.0623 6.6501 36.0383 6.80623 36.0209C6.96236 36.0036 7.07579 35.9756 7.14785 35.9342C7.21991 35.8928 7.25594 35.8221 7.25594 35.7207V35.6993C7.25594 35.4365 7.18388 35.2323 7.04109 35.0855C6.89831 34.94 6.68213 34.8667 6.39122 34.8667C6.10031 34.8667 5.85477 34.932 5.68396 35.0642C5.51315 35.1963 5.39305 35.3364 5.32366 35.4858L4.72583 35.2723C4.83259 35.0228 4.97537 34.8293 5.15419 34.6892C5.333 34.5491 5.52783 34.4516 5.74134 34.3956C5.95352 34.3395 6.16303 34.3115 6.36987 34.3115C6.50198 34.3115 6.65277 34.3275 6.82491 34.3582C6.99572 34.3889 7.16253 34.453 7.32399 34.5491C7.48546 34.6451 7.61891 34.7906 7.72566 34.9841C7.83242 35.1776 7.8858 35.4378 7.8858 35.7634V38.463H7.25594V37.9079H7.22391C7.18121 37.9973 7.11048 38.092 7.0104 38.1934C6.91032 38.2948 6.77821 38.3816 6.61274 38.4523C6.44726 38.523 6.24576 38.5591 6.0069 38.5591V38.5604ZM6.10298 37.9946C6.35252 37.9946 6.56203 37.9452 6.73417 37.8478C6.90631 37.7504 7.03575 37.6236 7.12383 37.4688C7.2119 37.314 7.25594 37.1512 7.25594 36.9804V36.4039C7.22925 36.436 7.17053 36.4653 7.08113 36.4907C6.99172 36.516 6.88763 36.5387 6.77153 36.5574C6.65544 36.5761 6.54201 36.5921 6.43259 36.6054C6.32316 36.6188 6.23509 36.6295 6.16703 36.6388C6.00289 36.6601 5.85077 36.6935 5.70932 36.7415C5.56786 36.7883 5.45444 36.859 5.3677 36.9524C5.28096 37.0458 5.23826 37.1726 5.23826 37.3327C5.23826 37.5516 5.31966 37.717 5.48246 37.8278C5.64526 37.9385 5.8521 37.9946 6.10298 37.9946Z" fill="#0857C3"/>
    <path d="M9.66697 35.9999V38.4646H9.03711V34.3678H9.64562V35.0084H9.69899C9.79507 34.8002 9.94053 34.6334 10.1367 34.5053C10.3329 34.3785 10.5851 34.3145 10.8947 34.3145C11.1722 34.3145 11.4151 34.3705 11.6233 34.4839C11.8314 34.5974 11.9929 34.7682 12.109 34.9964C12.2251 35.2245 12.2825 35.5141 12.2825 35.8624V38.4659H11.6526V35.9051C11.6526 35.5835 11.5686 35.3326 11.4017 35.1511C11.2349 34.971 11.0054 34.8803 10.7132 34.8803C10.5117 34.8803 10.3329 34.9243 10.1754 35.011C10.0179 35.0991 9.89382 35.2259 9.80308 35.3927C9.71234 35.5595 9.66697 35.7623 9.66697 36.0012V35.9999Z" fill="#0857C3"/>
    <path d="M13.4326 38.4632V33H14.0625V38.4632H13.4326ZM14.0198 36.97L14.0091 36.1907H14.1372L15.9294 34.3665H16.7087L14.7991 36.2974H14.7457L14.0198 36.97ZM16.0361 38.4632L14.4361 36.4362L14.8845 35.9985L16.8368 38.4632H16.0361Z" fill="#0857C3"/>
    <path d="M19.7168 38.4632V33H21.5623C21.9894 33 22.339 33.0721 22.6139 33.2175C22.8874 33.3616 23.0903 33.5618 23.2224 33.814C23.3545 34.0662 23.4199 34.3545 23.4199 34.6761C23.4199 34.9977 23.3545 35.2832 23.2224 35.5328C23.0903 35.7823 22.8888 35.9771 22.6165 36.1186C22.3443 36.2601 21.9974 36.3308 21.573 36.3308H20.0798V35.7329H21.5517C21.8439 35.7329 22.0788 35.6902 22.2576 35.6048C22.4364 35.5194 22.5658 35.398 22.6472 35.2405C22.7286 35.0831 22.7687 34.8949 22.7687 34.6761C22.7687 34.4572 22.7273 34.2664 22.6459 34.1023C22.5645 33.9381 22.4337 33.8113 22.2536 33.7219C22.0734 33.6325 21.8372 33.5872 21.541 33.5872H20.3787V38.4632H19.7168ZM22.2883 36.0092L23.6321 38.4632H22.8634L21.541 36.0092H22.2883Z" fill="#0857C3"/>
    <path d="M25.6392 38.5604C25.379 38.5604 25.1441 38.511 24.932 38.4123C24.7198 38.3135 24.5516 38.1707 24.4275 37.9826C24.3034 37.7958 24.2407 37.5676 24.2407 37.3007C24.2407 37.0658 24.2874 36.875 24.3795 36.7282C24.4716 36.5814 24.5957 36.4667 24.7505 36.3826C24.9053 36.2985 25.0761 36.2358 25.2642 36.1944C25.4524 36.1531 25.6406 36.1197 25.8314 36.0943C26.0796 36.0623 26.2824 36.0383 26.4386 36.0209C26.5947 36.0036 26.7081 35.9756 26.7802 35.9342C26.8522 35.8928 26.8883 35.8221 26.8883 35.7207V35.6993C26.8883 35.4365 26.8162 35.2323 26.6734 35.0855C26.5306 34.94 26.3131 34.8667 26.0235 34.8667C25.734 34.8667 25.4871 34.932 25.3163 35.0642C25.1455 35.1963 25.0254 35.3364 24.956 35.4858L24.3582 35.2723C24.4649 35.0228 24.6077 34.8293 24.7865 34.6892C24.9653 34.5491 25.1615 34.4516 25.3737 34.3956C25.5858 34.3395 25.7954 34.3115 26.0022 34.3115C26.1343 34.3115 26.2851 34.3275 26.4572 34.3582C26.6294 34.3889 26.7949 34.453 26.9563 34.5491C27.1165 34.6451 27.2512 34.7906 27.358 34.9841C27.4647 35.1776 27.5181 35.4378 27.5181 35.7634V38.463H26.8883V37.9079H26.8562C26.8135 37.9973 26.7428 38.092 26.6427 38.1934C26.5426 38.2948 26.4105 38.3816 26.2451 38.4523C26.0796 38.523 25.8781 38.5591 25.6392 38.5591V38.5604ZM25.7353 37.9946C25.9848 37.9946 26.1944 37.9452 26.3665 37.8478C26.5373 37.7504 26.6681 37.6236 26.7562 37.4688C26.8442 37.314 26.8883 37.1512 26.8883 36.9804V36.4039C26.8616 36.436 26.8029 36.4653 26.7134 36.4907C26.624 36.516 26.52 36.5387 26.4039 36.5574C26.2878 36.5761 26.1743 36.5921 26.0649 36.6054C25.9555 36.6188 25.8674 36.6295 25.7994 36.6388C25.6352 36.6601 25.4831 36.6935 25.3416 36.7415C25.2002 36.7883 25.0868 36.859 25 36.9524C24.9133 37.0458 24.8706 37.1726 24.8706 37.3327C24.8706 37.5516 24.952 37.717 25.1148 37.8278C25.2776 37.9385 25.4844 37.9946 25.7353 37.9946Z" fill="#0857C3"/>
    <path d="M28.668 38.4632V33H29.2978V38.4632H28.668ZM29.2551 36.97L29.2444 36.1907H29.3726L31.1647 34.3665H31.944L30.0344 36.2974H29.9811L29.2551 36.97ZM31.2715 38.4632L29.6715 36.4362L30.1198 35.9985L32.0721 38.4632H31.2715Z" fill="#0857C3"/>
    <path d="M33.1602 39.9993C33.0534 39.9993 32.9587 39.9913 32.8746 39.9739C32.7905 39.9566 32.7331 39.9405 32.7011 39.9245L32.8612 39.3694C33.0147 39.4081 33.1495 39.4228 33.2669 39.4121C33.3843 39.4014 33.4884 39.3494 33.5805 39.256C33.6726 39.1626 33.7566 39.0118 33.8327 38.8036L33.9501 38.4833L32.4355 34.3652H33.1188L34.2504 37.6306H34.2931L35.4247 34.3652H36.1079L34.3692 39.0598C34.2904 39.272 34.1943 39.4468 34.0782 39.5869C33.9622 39.727 33.8287 39.8298 33.6766 39.8978C33.5245 39.9659 33.3536 39.9993 33.1628 39.9993H33.1602Z" fill="#0857C3"/>
    <path d="M38.1426 38.5604C37.8824 38.5604 37.6476 38.511 37.4354 38.4123C37.2232 38.3135 37.0551 38.1707 36.931 37.9826C36.8069 37.7958 36.7441 37.5676 36.7441 37.3007C36.7441 37.0658 36.7908 36.875 36.8829 36.7282C36.975 36.5814 37.0991 36.4667 37.2539 36.3826C37.4087 36.2985 37.5795 36.2358 37.7677 36.1944C37.9558 36.1531 38.144 36.1197 38.3348 36.0943C38.583 36.0623 38.7858 36.0383 38.942 36.0209C39.0981 36.0036 39.2115 35.9756 39.2836 35.9342C39.3556 35.8928 39.3917 35.8221 39.3917 35.7207V35.6993C39.3917 35.4365 39.3196 35.2323 39.1768 35.0855C39.034 34.94 38.8165 34.8667 38.527 34.8667C38.2374 34.8667 37.9905 34.932 37.8197 35.0642C37.6489 35.1963 37.5288 35.3364 37.4594 35.4858L36.8616 35.2723C36.9683 35.0228 37.1111 34.8293 37.2899 34.6892C37.4687 34.5491 37.6649 34.4516 37.8771 34.3956C38.0893 34.3395 38.2988 34.3115 38.5056 34.3115C38.6377 34.3115 38.7885 34.3275 38.9607 34.3582C39.1328 34.3889 39.2983 34.453 39.4597 34.5491C39.6199 34.6451 39.7546 34.7906 39.8614 34.9841C39.9682 35.1776 40.0215 35.4378 40.0215 35.7634V38.463H39.3917V37.9079H39.3597C39.317 37.9973 39.2462 38.092 39.1461 38.1934C39.0461 38.2948 38.9139 38.3816 38.7485 38.4523C38.583 38.523 38.3815 38.5591 38.1426 38.5591V38.5604ZM38.2387 37.9946C38.4883 37.9946 38.6978 37.9452 38.8699 37.8478C39.0407 37.7504 39.1715 37.6236 39.2596 37.4688C39.3476 37.314 39.3917 37.1512 39.3917 36.9804V36.4039C39.365 36.436 39.3063 36.4653 39.2169 36.4907C39.1275 36.516 39.0234 36.5387 38.9073 36.5574C38.7912 36.5761 38.6777 36.5921 38.5683 36.6054C38.4589 36.6188 38.3708 36.6295 38.3028 36.6388C38.1386 36.6601 37.9865 36.6935 37.8451 36.7415C37.7036 36.7883 37.5902 36.859 37.5034 36.9524C37.4167 37.0458 37.374 37.1726 37.374 37.3327C37.374 37.5516 37.4554 37.717 37.6182 37.8278C37.781 37.9385 37.9878 37.9946 38.2387 37.9946Z" fill="#0857C3"/>
    <path d="M42.9542 34.3659V34.8997H40.8311V34.3659H42.9542ZM41.4502 33.3838H42.0801V37.2884C42.0801 37.4659 42.1068 37.5993 42.1588 37.6874C42.2109 37.7755 42.2789 37.8342 42.3617 37.8635C42.4444 37.8929 42.5325 37.9076 42.6245 37.9076C42.6939 37.9076 42.7513 37.9036 42.7954 37.8955C42.8394 37.8875 42.8754 37.8809 42.9021 37.8755L43.0302 38.4413C42.9875 38.4574 42.9275 38.4734 42.8514 38.4907C42.7753 38.5081 42.6779 38.5161 42.5605 38.5161C42.383 38.5161 42.2082 38.4774 42.0387 38.4013C41.8693 38.3252 41.7278 38.2091 41.617 38.0517C41.5063 37.8955 41.4502 37.698 41.4502 37.4592V33.3838Z" fill="#0857C3"/>
    <path d="M46.763 33V38.4632H46.1011V33H46.763Z" fill="#0857C3"/>
    <path d="M48.6303 35.9999V38.4646H48.0005V34.3678H48.609V35.0084H48.6624C48.7585 34.8002 48.9039 34.6334 49.1001 34.5053C49.2962 34.3785 49.5484 34.3145 49.858 34.3145C50.1356 34.3145 50.3785 34.3705 50.5866 34.4839C50.7948 34.5974 50.9563 34.7682 51.0724 34.9964C51.1885 35.2245 51.2459 35.5141 51.2459 35.8624V38.4659H50.616V35.9051C50.616 35.5835 50.5319 35.3326 50.3651 35.1511C50.1983 34.971 49.9688 34.8803 49.6766 34.8803C49.4751 34.8803 49.2962 34.9243 49.1388 35.011C48.9813 35.0991 48.8572 35.2259 48.7665 35.3927C48.6757 35.5595 48.6303 35.7623 48.6303 36.0012V35.9999Z" fill="#0857C3"/>
    <path d="M53.9432 38.5486C53.6016 38.5486 53.3 38.4619 53.0385 38.2884C52.7769 38.1149 52.5728 37.8694 52.4246 37.5518C52.2765 37.2342 52.2031 36.8592 52.2031 36.4242C52.2031 35.9892 52.2765 35.6209 52.4246 35.3046C52.5728 34.9883 52.7783 34.7441 53.0412 34.5706C53.304 34.3985 53.6083 34.3118 53.9526 34.3118C54.2195 34.3118 54.4303 34.3558 54.5864 34.4439C54.7412 34.5319 54.8613 34.632 54.9441 34.7428C55.0268 34.8535 55.0909 34.9456 55.1376 35.0163H55.1909V33H55.8208V38.4632H55.2123V37.8334H55.1376C55.0909 37.9081 55.0255 38.0015 54.9401 38.1149C54.8547 38.2284 54.7332 38.3284 54.5744 38.4165C54.4156 38.5046 54.2048 38.5486 53.9419 38.5486H53.9432ZM54.0286 37.9828C54.2809 37.9828 54.4944 37.9161 54.6692 37.784C54.844 37.6519 54.9761 37.4677 55.0668 37.2315C55.1576 36.9953 55.203 36.7231 55.203 36.4135C55.203 36.1039 55.1589 35.8397 55.0695 35.6088C54.9801 35.378 54.8493 35.1992 54.6745 35.0697C54.4997 34.9403 54.2849 34.8762 54.0286 34.8762C53.7724 34.8762 53.5402 34.9443 53.3628 35.0804C53.1853 35.2165 53.0532 35.4007 52.9651 35.6329C52.877 35.8651 52.833 36.1253 52.833 36.4122C52.833 36.6991 52.877 36.9686 52.9678 37.2062C53.0572 37.4437 53.1906 37.6319 53.3681 37.772C53.5442 37.9121 53.7644 37.9815 54.0286 37.9815V37.9828Z" fill="#0857C3"/>
    <path d="M58.7238 38.5484C58.3541 38.5484 58.0298 38.4603 57.7509 38.2842C57.472 38.108 57.2559 37.8611 57.0997 37.5449C56.9436 37.2286 56.8662 36.8576 56.8662 36.4346C56.8662 36.0116 56.9436 35.6353 57.0997 35.3177C57.2545 35.0001 57.472 34.7519 57.7509 34.5757C58.0298 34.3996 58.3528 34.3115 58.7238 34.3115C59.0947 34.3115 59.4177 34.3996 59.6966 34.5757C59.9755 34.7519 60.1916 34.9988 60.3478 35.3177C60.5039 35.6366 60.5813 36.0089 60.5813 36.4346C60.5813 36.8603 60.5039 37.2273 60.3478 37.5449C60.1916 37.8611 59.9755 38.108 59.6966 38.2842C59.4177 38.4603 59.0947 38.5484 58.7238 38.5484ZM58.7238 37.9826C59.004 37.9826 59.2362 37.9105 59.4177 37.7664C59.5992 37.6223 59.7326 37.4328 59.8207 37.1979C59.9087 36.9631 59.9514 36.7095 59.9514 36.4346C59.9514 36.1597 59.9074 35.9062 59.8207 35.6687C59.7339 35.4311 59.5992 35.2403 59.4177 35.0948C59.2362 34.9494 59.0053 34.876 58.7238 34.876C58.4422 34.876 58.2113 34.9494 58.0298 35.0948C57.8484 35.2403 57.7136 35.4325 57.6268 35.6687C57.5401 35.9048 57.4961 36.1597 57.4961 36.4346C57.4961 36.7095 57.5401 36.9631 57.6268 37.1979C57.7136 37.4328 57.8484 37.6223 58.0298 37.7664C58.2113 37.9105 58.4422 37.9826 58.7238 37.9826Z" fill="#0857C3"/>
    <path d="M62.1704 35.9999V38.4646H61.5405V34.3678H62.149V35.0084H62.2024C62.2985 34.8002 62.4439 34.6334 62.6401 34.5053C62.8363 34.3785 63.0885 34.3145 63.3981 34.3145C63.6756 34.3145 63.9185 34.3705 64.1267 34.4839C64.3349 34.5974 64.4963 34.7682 64.6124 34.9964C64.7285 35.2245 64.7859 35.5141 64.7859 35.8624V38.4659H64.156V35.9051C64.156 35.5835 64.072 35.3326 63.9052 35.1511C63.7384 34.971 63.5088 34.8803 63.2166 34.8803C63.0151 34.8803 62.8363 34.9243 62.6788 35.011C62.5213 35.0991 62.3972 35.2259 62.3065 35.3927C62.2158 35.5595 62.1704 35.7623 62.1704 36.0012V35.9999Z" fill="#0857C3"/>
    <path d="M67.6531 38.5484C67.2581 38.5484 66.9178 38.4603 66.6323 38.2855C66.3467 38.1107 66.1265 37.8652 65.973 37.5489C65.8196 37.2326 65.7422 36.8657 65.7422 36.4453C65.7422 36.0249 65.8196 35.6553 65.973 35.335C66.1265 35.0134 66.3427 34.7639 66.6189 34.5824C66.8951 34.4023 67.2181 34.3115 67.5891 34.3115C67.8026 34.3115 68.0134 34.3476 68.2216 34.4183C68.4298 34.489 68.6193 34.6051 68.7901 34.7639C68.9609 34.9227 69.097 35.1335 69.1984 35.3951C69.2998 35.6566 69.3505 35.9782 69.3505 36.3612V36.6281H66.1919V36.0837H68.71C68.71 35.8528 68.6646 35.646 68.5725 35.4645C68.4805 35.283 68.351 35.1402 68.1829 35.0348C68.0147 34.9294 67.8172 34.8773 67.5891 34.8773C67.3382 34.8773 67.122 34.9387 66.9392 35.0628C66.7564 35.1869 66.6163 35.3471 66.5188 35.5445C66.4214 35.742 66.372 35.9529 66.372 36.1797V36.5427C66.372 36.8523 66.4254 37.1139 66.5335 37.3287C66.6403 37.5435 66.7911 37.705 66.9832 37.8171C67.1754 37.9279 67.3982 37.9839 67.6531 37.9839C67.8186 37.9839 67.968 37.9599 68.1028 37.9132C68.2376 37.8665 68.3537 37.7944 68.4511 37.6997C68.5485 37.6049 68.6246 37.4862 68.678 37.3434L69.2865 37.5142C69.2224 37.7197 69.1143 37.9012 68.9635 38.0573C68.8114 38.2134 68.6259 38.3335 68.4031 38.4203C68.1802 38.507 67.9307 38.5497 67.6531 38.5497V38.5484Z" fill="#0857C3"/>
    <path d="M73.2132 35.283L72.6474 35.4431C72.6113 35.3484 72.5593 35.2576 72.4912 35.1669C72.4232 35.0775 72.3298 35.0028 72.2123 34.944C72.0949 34.8853 71.9441 34.856 71.7613 34.856C71.5104 34.856 71.3022 34.9134 71.1354 35.0281C70.9686 35.1429 70.8859 35.2883 70.8859 35.4645C70.8859 35.6206 70.9433 35.7447 71.0567 35.8355C71.1701 35.9262 71.3476 36.0009 71.5905 36.0623L72.199 36.2118C72.566 36.3012 72.8382 36.436 73.0183 36.6188C73.1985 36.8016 73.2879 37.0351 73.2879 37.322C73.2879 37.5569 73.2212 37.7664 73.0864 37.9519C72.9516 38.136 72.7648 38.2828 72.5246 38.3896C72.2844 38.4963 72.0055 38.5497 71.6866 38.5497C71.2689 38.5497 70.9233 38.459 70.6484 38.2775C70.3735 38.096 70.2013 37.8318 70.1279 37.4822L70.7258 37.3327C70.7831 37.5529 70.8912 37.7184 71.05 37.8291C71.2088 37.9399 71.4183 37.9946 71.6759 37.9946C71.9695 37.9946 72.203 37.9319 72.3765 37.8064C72.5499 37.681 72.6367 37.5302 72.6367 37.3541C72.6367 37.2113 72.5873 37.0925 72.4872 36.9951C72.3871 36.8977 72.235 36.8256 72.0282 36.7776L71.3449 36.6174C70.97 36.528 70.6951 36.3906 70.5189 36.2024C70.3441 36.0156 70.256 35.7794 70.256 35.4965C70.256 35.2657 70.3214 35.0615 70.4522 34.8827C70.583 34.7052 70.7618 34.5651 70.9886 34.4636C71.2155 34.3622 71.473 34.3115 71.7613 34.3115C72.167 34.3115 72.4859 34.4009 72.7181 34.5784C72.9503 34.7559 73.1144 34.9908 73.2132 35.283Z" fill="#0857C3"/>
    <path d="M74.5573 33.6841C74.4345 33.6841 74.3291 33.6428 74.241 33.5587C74.1529 33.4746 74.1089 33.3745 74.1089 33.2571C74.1089 33.1397 74.1529 33.0396 74.241 32.9555C74.3291 32.8714 74.4345 32.8301 74.5573 32.8301C74.68 32.8301 74.7855 32.8714 74.8735 32.9555C74.9616 33.0396 75.0056 33.1397 75.0056 33.2571C75.0056 33.3745 74.9616 33.4746 74.8735 33.5587C74.7855 33.6428 74.68 33.6841 74.5573 33.6841ZM74.237 38.4641V34.3674H74.8669V38.4641H74.237Z" fill="#0857C3"/>
    <path d="M77.2247 38.5604C76.9645 38.5604 76.7296 38.511 76.5174 38.4123C76.3052 38.3135 76.1384 38.1707 76.013 37.9826C75.8889 37.7958 75.8262 37.5676 75.8262 37.3007C75.8262 37.0658 75.8729 36.875 75.965 36.7282C76.057 36.5814 76.1811 36.4667 76.3359 36.3826C76.4907 36.2985 76.6615 36.2358 76.8497 36.1944C77.0365 36.1531 77.226 36.1197 77.4168 36.0943C77.6664 36.0623 77.8679 36.0383 78.024 36.0209C78.1801 36.0036 78.2936 35.9756 78.3656 35.9342C78.4377 35.8928 78.4737 35.8221 78.4737 35.7207V35.6993C78.4737 35.4365 78.4017 35.2323 78.2589 35.0855C78.1161 34.94 77.8986 34.8667 77.609 34.8667C77.3194 34.8667 77.0726 34.932 76.9017 35.0642C76.7309 35.1963 76.6108 35.3364 76.5414 35.4858L75.9436 35.2723C76.0504 35.0228 76.1931 34.8293 76.372 34.6892C76.5508 34.5491 76.7469 34.4516 76.9591 34.3956C77.1713 34.3395 77.3808 34.3115 77.5876 34.3115C77.7198 34.3115 77.8705 34.3275 78.0427 34.3582C78.2135 34.3889 78.3803 34.453 78.5418 34.5491C78.7019 34.6451 78.8367 34.7906 78.9434 34.9841C79.0502 35.1776 79.1036 35.4378 79.1036 35.7634V38.463H78.4737V37.9079H78.4417C78.399 37.9973 78.3283 38.092 78.2282 38.1934C78.1281 38.2948 77.996 38.3816 77.8305 38.4523C77.665 38.523 77.4635 38.5591 77.2247 38.5591V38.5604ZM77.3208 37.9946C77.5703 37.9946 77.7798 37.9452 77.952 37.8478C78.1241 37.7504 78.2535 37.6236 78.3416 37.4688C78.4297 37.314 78.4737 37.1512 78.4737 36.9804V36.4039C78.447 36.436 78.3883 36.4653 78.2989 36.4907C78.2095 36.516 78.1067 36.5387 77.9893 36.5574C77.8719 36.5761 77.7598 36.5921 77.6504 36.6054C77.5409 36.6188 77.4529 36.6295 77.3848 36.6388C77.2207 36.6601 77.0685 36.6935 76.9271 36.7415C76.7856 36.7883 76.6722 36.859 76.5855 36.9524C76.4987 37.0458 76.456 37.1726 76.456 37.3327C76.456 37.5516 76.5374 37.717 76.7002 37.8278C76.863 37.9385 77.0699 37.9946 77.3208 37.9946Z" fill="#0857C3"/>
</svg>