<svg width="18" height="18" viewBox="0 0 18 18" fill="none" xmlns="http://www.w3.org/2000/svg">
<g clip-path="url(#clip0_12427_26832)">
<path d="M14.5998 15.8299H6.9498C6.1798 15.8299 5.5498 15.1999 5.5498 14.4299V6.77988C5.5498 6.00988 6.1798 5.37988 6.9498 5.37988H14.5998C15.3698 5.37988 15.9998 6.00988 15.9998 6.77988V14.4299C15.9998 15.1999 15.3698 15.8299 14.5998 15.8299Z" fill="#307FE2"/>
<path d="M11.05 2H3.4C2.63 2 2 2.63 2 3.4V11.04C2 11.81 2.63 12.44 3.4 12.44H4.62V6.78C4.62 5.49 5.67 4.45 6.95 4.45H12.45V3.4C12.45 2.63 11.82 2 11.05 2Z" fill="#307FE2"/>
</g>
<defs>
<clipPath id="clip0_12427_26832">
<rect width="14" height="13.83" fill="white" transform="translate(2 2)"/>
</clipPath>
</defs>
</svg>
