<svg width="20" height="20" viewBox="0 0 20 20" fill="none" xmlns="http://www.w3.org/2000/svg">
                                                    <path d="M6.49984 1.66699H13.4998C16.1665 1.66699 18.3332 3.83366 18.3332 6.50033V13.5003C18.3332 14.7822 17.8239 16.0116 16.9175 16.918C16.0111 17.8244 14.7817 18.3337 13.4998 18.3337H6.49984C3.83317 18.3337 1.6665 16.167 1.6665 13.5003V6.50033C1.6665 5.21845 2.17573 3.98907 3.08215 3.08264C3.98858 2.17622 5.21796 1.66699 6.49984 1.66699ZM6.33317 3.33366C5.53752 3.33366 4.77446 3.64973 4.21185 4.21234C3.64924 4.77495 3.33317 5.53801 3.33317 6.33366V13.667C3.33317 15.3253 4.67484 16.667 6.33317 16.667H13.6665C14.4622 16.667 15.2252 16.3509 15.7878 15.7883C16.3504 15.2257 16.6665 14.4626 16.6665 13.667V6.33366C16.6665 4.67533 15.3248 3.33366 13.6665 3.33366H6.33317ZM14.3748 4.58366C14.6511 4.58366 14.9161 4.69341 15.1114 4.88876C15.3068 5.08411 15.4165 5.34906 15.4165 5.62533C15.4165 5.90159 15.3068 6.16654 15.1114 6.3619C14.9161 6.55725 14.6511 6.66699 14.3748 6.66699C14.0986 6.66699 13.8336 6.55725 13.6383 6.3619C13.4429 6.16654 13.3332 5.90159 13.3332 5.62533C13.3332 5.34906 13.4429 5.08411 13.6383 4.88876C13.8336 4.69341 14.0986 4.58366 14.3748 4.58366ZM9.99984 5.83366C11.1049 5.83366 12.1647 6.27265 12.9461 7.05405C13.7275 7.83545 14.1665 8.89526 14.1665 10.0003C14.1665 11.1054 13.7275 12.1652 12.9461 12.9466C12.1647 13.728 11.1049 14.167 9.99984 14.167C8.89477 14.167 7.83496 13.728 7.05356 12.9466C6.27216 12.1652 5.83317 11.1054 5.83317 10.0003C5.83317 8.89526 6.27216 7.83545 7.05356 7.05405C7.83496 6.27265 8.89477 5.83366 9.99984 5.83366ZM9.99984 7.50033C9.3368 7.50033 8.70091 7.76372 8.23207 8.23256C7.76323 8.7014 7.49984 9.33728 7.49984 10.0003C7.49984 10.6634 7.76323 11.2993 8.23207 11.7681C8.70091 12.2369 9.3368 12.5003 9.99984 12.5003C10.6629 12.5003 11.2988 12.2369 11.7676 11.7681C12.2364 11.2993 12.4998 10.6634 12.4998 10.0003C12.4998 9.33728 12.2364 8.7014 11.7676 8.23256C11.2988 7.76372 10.6629 7.50033 9.99984 7.50033Z" fill="white"/>
                                                </svg>