<svg width="20" height="20" viewBox="0 0 20 20" fill="none" xmlns="http://www.w3.org/2000/svg">
    <path fill-rule="evenodd" clip-rule="evenodd" d="M9.99984 3.33301C10.7123 3.33301 11.4432 3.35134 12.1515 3.38134L12.9882 3.42134L13.789 3.46884L14.539 3.51967L15.224 3.57301C15.9675 3.62958 16.6672 3.9467 17.1998 4.46851C17.7324 4.99032 18.0638 5.68334 18.1357 6.42551L18.169 6.77967L18.2315 7.53801C18.2898 8.32384 18.3332 9.18051 18.3332 9.99967C18.3332 10.8188 18.2898 11.6755 18.2315 12.4613L18.169 13.2197L18.1357 13.5738C18.0638 14.3161 17.7323 15.0093 17.1995 15.5311C16.6667 16.0529 15.9668 16.37 15.2232 16.4263L14.5398 16.4788L13.7898 16.5305L12.9882 16.578L12.1515 16.618C11.4347 16.6491 10.7173 16.6652 9.99984 16.6663C9.28236 16.6652 8.56498 16.6491 7.84817 16.618L7.0115 16.578L6.21067 16.5305L5.46067 16.4788L4.77567 16.4263C4.03218 16.3698 3.3325 16.0526 2.79987 15.5308C2.26724 15.009 1.93583 14.316 1.864 13.5738L1.83067 13.2197L1.76817 12.4613C1.7047 11.6423 1.67079 10.8212 1.6665 9.99967C1.6665 9.18051 1.70984 8.32384 1.76817 7.53801L1.83067 6.77967L1.864 6.42551C1.9358 5.68347 2.2671 4.99055 2.79956 4.46876C3.33202 3.94697 4.0315 3.62977 4.77484 3.57301L5.459 3.51967L6.209 3.46884L7.01067 3.42134L7.84734 3.38134C8.56442 3.35028 9.28208 3.33417 9.99984 3.33301ZM8.33317 7.97884V12.0205C8.33317 12.4055 8.74984 12.6455 9.08317 12.4538L12.5832 10.433C12.6593 10.3892 12.7226 10.326 12.7666 10.25C12.8106 10.1739 12.8337 10.0876 12.8337 9.99967C12.8337 9.9118 12.8106 9.82547 12.7666 9.7494C12.7226 9.67332 12.6593 9.61018 12.5832 9.56634L9.08317 7.54634C9.00714 7.50244 8.92089 7.47934 8.83309 7.47935C8.7453 7.47937 8.65905 7.5025 8.58303 7.54642C8.50701 7.59034 8.4439 7.65351 8.40004 7.72956C8.35618 7.80562 8.33311 7.89188 8.33317 7.97967V7.97884Z" fill="white"/>
</svg>